<svg width="172" height="32" viewBox="0 0 172 32" fill="none" xmlns="http://www.w3.org/2000/svg">
<path d="M52.4346 24.315C52.4346 26.601 52.4346 28.9362 52.4814 31.2124H47.4398C47.3062 29.9722 47.2437 28.7253 47.2525 27.4779C46.0845 30.0004 44.0318 31.8652 38.8497 31.8652C33.8524 31.8652 29.9787 29.0668 29.9787 22.1595V7.46554H35.1534V21.2358C35.1534 24.7362 36.5063 27.5814 40.476 27.5814C45.2368 27.5814 47.2451 24.8298 47.2451 18.2945V7.45569H52.4198L52.4346 24.315Z" fill="white"/>
<path d="M55.7012 7.46646H60.3239V0H65.5455V7.46646H71.5679V11.4817H65.5455V23.7567C65.5455 26.2767 66.1517 27.4517 68.6725 27.4517C69.4242 27.4591 70.1749 27.3964 70.9149 27.2645V30.9965C69.7937 31.371 68.4384 31.4646 66.992 31.4646C61.8567 31.4646 60.3166 29.1786 60.3166 24.5105V11.4817H55.7012V7.46646Z" fill="white"/>
<path d="M97.7169 23.6645C96.5958 28.0049 92.8601 31.8774 85.8569 31.8774C77.2324 31.8774 73.1591 26.1845 73.1591 19.4176C73.1591 12.7419 77.7819 6.81506 85.9038 6.81506C94.2622 6.81506 97.1576 12.1827 97.6233 15.2151H92.4486C91.7093 13.21 90.0214 10.9215 85.8643 10.9215C81.1504 10.9215 78.4891 14.4687 78.4891 19.324C78.4891 23.9897 81.0099 27.7709 85.8643 27.7709C89.4595 27.7709 91.3742 26.1845 92.5422 23.6645H97.7169Z" fill="white"/>
<path d="M130.787 13.9552C130.787 11.8071 130.787 9.61474 130.74 7.46668H135.829C135.922 8.20569 136.016 10.7356 136.016 12.694C137.509 9.14671 140.826 6.76709 145.493 6.8607V11.7603C140.072 11.6667 136.016 14.7016 136.016 21.6138V31.2209H130.787V13.9552Z" fill="white"/>
<path d="M152.342 20.5831C152.589 24.7388 155.425 27.818 159.907 27.818C163.409 27.818 165.277 26.4657 166.442 24.3693H171.671C170.365 28.0644 166.957 31.8826 159.72 31.8826C150.896 31.8826 147.113 25.6306 147.113 19.4229C147.113 12.3752 151.83 6.82031 159.626 6.82031C168.685 6.82031 171.999 13.4024 171.999 19.2825V20.5881L152.342 20.5831ZM166.634 17.0827C166.447 14.4691 165.048 10.7371 159.585 10.7371C154.962 10.7371 152.815 13.5823 152.438 17.0827H166.634Z" fill="white"/>
<path d="M12.6584 32C19.6494 32 25.3168 26.3345 25.3168 19.3457C25.3168 12.3569 19.6494 6.69141 12.6584 6.69141C5.66736 6.69141 0 12.3569 0 19.3457C0 26.3345 5.66736 32 12.6584 32Z" fill="white"/>
<path d="M113.368 32C120.359 32 126.026 26.3345 126.026 19.3457C126.026 12.3569 120.359 6.69141 113.368 6.69141C106.377 6.69141 100.709 12.3569 100.709 19.3457C100.709 26.3345 106.377 32 113.368 32Z" fill="white"/>
</svg>
