<svg width="22" height="14" viewBox="0 0 22 14" fill="none" xmlns="http://www.w3.org/2000/svg">
<path d="M8.88025 6.25943C8.88025 6.25943 10.9618 6.10413 10.9618 3.65099C10.9618 1.19769 9.25883 0.000427246 7.10164 0.000427246H0.00317383V13.7099H7.10164C7.10164 13.7099 11.435 13.8474 11.435 9.66346C11.435 9.6635 11.6239 6.25943 8.88025 6.25943ZM6.5907 2.43712H7.10164C7.10164 2.43712 8.06653 2.43712 8.06653 3.86353C8.06653 5.28976 7.49907 5.49654 6.85543 5.49654H3.13085V2.43712H6.5907ZM6.90105 11.2732H3.13085V7.60957H7.10164C7.10164 7.60957 8.53977 7.59062 8.53977 9.49232C8.53977 11.0959 7.46563 11.2611 6.90105 11.2732ZM17.2143 3.48851C11.9683 3.48851 11.9729 8.75608 11.9729 8.75608C11.9729 8.75608 11.613 13.9966 17.2143 13.9966C17.2143 13.9966 21.882 14.2646 21.882 10.3511H19.4814C19.4814 10.3511 19.5615 11.8248 17.2943 11.8248C17.2943 11.8248 14.8934 11.9866 14.8934 9.43972H21.962C21.962 9.43968 22.7355 3.48851 17.2143 3.48851ZM14.867 7.60957C14.867 7.60957 15.1602 5.4965 17.2676 5.4965C19.3746 5.4965 19.3482 7.60957 19.3482 7.60957H14.867ZM19.9074 2.4963H14.2794V0.808088H19.9074V2.4963Z" fill="white"/>
</svg>
